<mxfile host="Electron" agent="Mozilla/5.0 (Windows NT 10.0; Win64; x64) AppleWebKit/537.36 (KHTML, like Gecko) draw.io/25.0.2 Chrome/128.0.6613.186 Electron/32.2.5 Safari/537.36" version="25.0.2">
  <diagram name="Page-1" id="ZXQrV6VgBBVONsN2yvth">
    <mxGraphModel dx="2355" dy="2368" grid="1" gridSize="10" guides="1" tooltips="1" connect="1" arrows="1" fold="1" page="1" pageScale="1" pageWidth="850" pageHeight="1100" math="0" shadow="0">
      <root>
        <mxCell id="0" />
        <mxCell id="1" parent="0" />
        <mxCell id="sVTlptBGOrVxVdvOg37E-1" value="User" style="swimlane;fontStyle=1;align=center;verticalAlign=top;childLayout=stackLayout;horizontal=1;startSize=26;horizontalStack=0;resizeParent=1;resizeParentMax=0;resizeLast=0;collapsible=1;marginBottom=0;whiteSpace=wrap;html=1;" vertex="1" parent="1">
          <mxGeometry x="120" y="216" width="210" height="178" as="geometry" />
        </mxCell>
        <mxCell id="sVTlptBGOrVxVdvOg37E-2" value="- id : Integer&lt;div&gt;- Username: String&lt;/div&gt;&lt;div&gt;- Password: char&lt;/div&gt;" style="text;strokeColor=none;fillColor=none;align=left;verticalAlign=top;spacingLeft=4;spacingRight=4;overflow=hidden;rotatable=0;points=[[0,0.5],[1,0.5]];portConstraint=eastwest;whiteSpace=wrap;html=1;" vertex="1" parent="sVTlptBGOrVxVdvOg37E-1">
          <mxGeometry y="26" width="210" height="74" as="geometry" />
        </mxCell>
        <mxCell id="sVTlptBGOrVxVdvOg37E-3" value="" style="line;strokeWidth=1;fillColor=none;align=left;verticalAlign=middle;spacingTop=-1;spacingLeft=3;spacingRight=3;rotatable=0;labelPosition=right;points=[];portConstraint=eastwest;strokeColor=inherit;" vertex="1" parent="sVTlptBGOrVxVdvOg37E-1">
          <mxGeometry y="100" width="210" height="8" as="geometry" />
        </mxCell>
        <mxCell id="sVTlptBGOrVxVdvOg37E-4" value="+ User(String username): constructor&lt;div&gt;+ getter and setter&lt;/div&gt;" style="text;strokeColor=none;fillColor=none;align=left;verticalAlign=top;spacingLeft=4;spacingRight=4;overflow=hidden;rotatable=0;points=[[0,0.5],[1,0.5]];portConstraint=eastwest;whiteSpace=wrap;html=1;" vertex="1" parent="sVTlptBGOrVxVdvOg37E-1">
          <mxGeometry y="108" width="210" height="70" as="geometry" />
        </mxCell>
        <mxCell id="sVTlptBGOrVxVdvOg37E-6" value="&lt;div&gt;&lt;span style=&quot;font-weight: normal;&quot;&gt;&amp;lt;&amp;lt;interface&amp;gt;&amp;gt;&lt;/span&gt;&lt;/div&gt;User Service" style="swimlane;fontStyle=1;align=center;verticalAlign=top;childLayout=stackLayout;horizontal=1;startSize=40;horizontalStack=0;resizeParent=1;resizeParentMax=0;resizeLast=0;collapsible=1;marginBottom=0;whiteSpace=wrap;html=1;" vertex="1" parent="1">
          <mxGeometry x="400" y="216" width="210" height="100" as="geometry" />
        </mxCell>
        <mxCell id="sVTlptBGOrVxVdvOg37E-7" value="&amp;nbsp;&amp;nbsp;" style="text;strokeColor=none;fillColor=none;align=left;verticalAlign=top;spacingLeft=4;spacingRight=4;overflow=hidden;rotatable=0;points=[[0,0.5],[1,0.5]];portConstraint=eastwest;whiteSpace=wrap;html=1;" vertex="1" parent="sVTlptBGOrVxVdvOg37E-6">
          <mxGeometry y="40" width="210" height="20" as="geometry" />
        </mxCell>
        <mxCell id="sVTlptBGOrVxVdvOg37E-8" value="" style="line;strokeWidth=1;fillColor=none;align=left;verticalAlign=middle;spacingTop=-1;spacingLeft=3;spacingRight=3;rotatable=0;labelPosition=right;points=[];portConstraint=eastwest;strokeColor=inherit;" vertex="1" parent="sVTlptBGOrVxVdvOg37E-6">
          <mxGeometry y="60" width="210" height="8" as="geometry" />
        </mxCell>
        <mxCell id="sVTlptBGOrVxVdvOg37E-9" value="+ getUser() : List&amp;lt;user&amp;gt;" style="text;strokeColor=none;fillColor=none;align=left;verticalAlign=top;spacingLeft=4;spacingRight=4;overflow=hidden;rotatable=0;points=[[0,0.5],[1,0.5]];portConstraint=eastwest;whiteSpace=wrap;html=1;" vertex="1" parent="sVTlptBGOrVxVdvOg37E-6">
          <mxGeometry y="68" width="210" height="32" as="geometry" />
        </mxCell>
        <mxCell id="sVTlptBGOrVxVdvOg37E-10" value="User Service&lt;div&gt;&lt;/div&gt;" style="swimlane;fontStyle=1;align=center;verticalAlign=top;childLayout=stackLayout;horizontal=1;startSize=32;horizontalStack=0;resizeParent=1;resizeParentMax=0;resizeLast=0;collapsible=1;marginBottom=0;whiteSpace=wrap;html=1;" vertex="1" parent="1">
          <mxGeometry x="390" y="380" width="210" height="102" as="geometry" />
        </mxCell>
        <mxCell id="sVTlptBGOrVxVdvOg37E-11" value="+ connection: java.sql.Connection" style="text;strokeColor=none;fillColor=none;align=left;verticalAlign=top;spacingLeft=4;spacingRight=4;overflow=hidden;rotatable=0;points=[[0,0.5],[1,0.5]];portConstraint=eastwest;whiteSpace=wrap;html=1;" vertex="1" parent="sVTlptBGOrVxVdvOg37E-10">
          <mxGeometry y="32" width="210" height="30" as="geometry" />
        </mxCell>
        <mxCell id="sVTlptBGOrVxVdvOg37E-12" value="" style="line;strokeWidth=1;fillColor=none;align=left;verticalAlign=middle;spacingTop=-1;spacingLeft=3;spacingRight=3;rotatable=0;labelPosition=right;points=[];portConstraint=eastwest;strokeColor=inherit;" vertex="1" parent="sVTlptBGOrVxVdvOg37E-10">
          <mxGeometry y="62" width="210" height="8" as="geometry" />
        </mxCell>
        <mxCell id="sVTlptBGOrVxVdvOg37E-13" value="+ getUser(): List&amp;lt;User&amp;gt;" style="text;strokeColor=none;fillColor=none;align=left;verticalAlign=top;spacingLeft=4;spacingRight=4;overflow=hidden;rotatable=0;points=[[0,0.5],[1,0.5]];portConstraint=eastwest;whiteSpace=wrap;html=1;" vertex="1" parent="sVTlptBGOrVxVdvOg37E-10">
          <mxGeometry y="70" width="210" height="32" as="geometry" />
        </mxCell>
        <mxCell id="sVTlptBGOrVxVdvOg37E-18" value="TodoListView" style="swimlane;fontStyle=1;align=center;verticalAlign=top;childLayout=stackLayout;horizontal=1;startSize=26;horizontalStack=0;resizeParent=1;resizeParentMax=0;resizeLast=0;collapsible=1;marginBottom=0;whiteSpace=wrap;html=1;" vertex="1" parent="1">
          <mxGeometry x="700" y="210" width="210" height="200" as="geometry" />
        </mxCell>
        <mxCell id="sVTlptBGOrVxVdvOg37E-19" value="- TodoListService: TodoListService&lt;div&gt;- UserService: UserService&lt;/div&gt;" style="text;strokeColor=none;fillColor=none;align=left;verticalAlign=top;spacingLeft=4;spacingRight=4;overflow=hidden;rotatable=0;points=[[0,0.5],[1,0.5]];portConstraint=eastwest;whiteSpace=wrap;html=1;" vertex="1" parent="sVTlptBGOrVxVdvOg37E-18">
          <mxGeometry y="26" width="210" height="46" as="geometry" />
        </mxCell>
        <mxCell id="sVTlptBGOrVxVdvOg37E-20" value="" style="line;strokeWidth=1;fillColor=none;align=left;verticalAlign=middle;spacingTop=-1;spacingLeft=3;spacingRight=3;rotatable=0;labelPosition=right;points=[];portConstraint=eastwest;strokeColor=inherit;" vertex="1" parent="sVTlptBGOrVxVdvOg37E-18">
          <mxGeometry y="72" width="210" height="8" as="geometry" />
        </mxCell>
        <mxCell id="sVTlptBGOrVxVdvOg37E-21" value="+ viewShowTodoList(): void&lt;div&gt;+ viewAddTodoList(): void&lt;/div&gt;&lt;div&gt;+ viewRemoveTodoList(): void&lt;/div&gt;&lt;div&gt;+ viewEditTodoList(): void&lt;/div&gt;&lt;div&gt;+ viewShowUser(): void&lt;/div&gt;" style="text;strokeColor=none;fillColor=none;align=left;verticalAlign=top;spacingLeft=4;spacingRight=4;overflow=hidden;rotatable=0;points=[[0,0.5],[1,0.5]];portConstraint=eastwest;whiteSpace=wrap;html=1;" vertex="1" parent="sVTlptBGOrVxVdvOg37E-18">
          <mxGeometry y="80" width="210" height="120" as="geometry" />
        </mxCell>
        <mxCell id="sVTlptBGOrVxVdvOg37E-22" value="&lt;div&gt;&lt;span style=&quot;font-weight: normal;&quot;&gt;&amp;lt;&amp;lt;interface&amp;gt;&amp;gt;&lt;/span&gt;&lt;/div&gt;&lt;div&gt;TodoList Service&lt;/div&gt;" style="swimlane;fontStyle=1;align=center;verticalAlign=top;childLayout=stackLayout;horizontal=1;startSize=40;horizontalStack=0;resizeParent=1;resizeParentMax=0;resizeLast=0;collapsible=1;marginBottom=0;whiteSpace=wrap;html=1;" vertex="1" parent="1">
          <mxGeometry x="1030" y="210" width="220" height="160" as="geometry" />
        </mxCell>
        <mxCell id="sVTlptBGOrVxVdvOg37E-23" value="&amp;nbsp;&amp;nbsp;" style="text;strokeColor=none;fillColor=none;align=left;verticalAlign=top;spacingLeft=4;spacingRight=4;overflow=hidden;rotatable=0;points=[[0,0.5],[1,0.5]];portConstraint=eastwest;whiteSpace=wrap;html=1;" vertex="1" parent="sVTlptBGOrVxVdvOg37E-22">
          <mxGeometry y="40" width="220" height="20" as="geometry" />
        </mxCell>
        <mxCell id="sVTlptBGOrVxVdvOg37E-24" value="" style="line;strokeWidth=1;fillColor=none;align=left;verticalAlign=middle;spacingTop=-1;spacingLeft=3;spacingRight=3;rotatable=0;labelPosition=right;points=[];portConstraint=eastwest;strokeColor=inherit;" vertex="1" parent="sVTlptBGOrVxVdvOg37E-22">
          <mxGeometry y="60" width="220" height="8" as="geometry" />
        </mxCell>
        <mxCell id="sVTlptBGOrVxVdvOg37E-25" value="+ AddTodo(TodoList todoList): void&lt;div&gt;+ removeTodo(Integer id): void&lt;/div&gt;&lt;div&gt;+ editTodo(Integer id, String, newTodo)&lt;/div&gt;&lt;div&gt;+ getTodo(): List&amp;lt;TodoList&amp;gt;&lt;/div&gt;" style="text;strokeColor=none;fillColor=none;align=left;verticalAlign=top;spacingLeft=4;spacingRight=4;overflow=hidden;rotatable=0;points=[[0,0.5],[1,0.5]];portConstraint=eastwest;whiteSpace=wrap;html=1;" vertex="1" parent="sVTlptBGOrVxVdvOg37E-22">
          <mxGeometry y="68" width="220" height="92" as="geometry" />
        </mxCell>
        <mxCell id="sVTlptBGOrVxVdvOg37E-40" style="edgeStyle=orthogonalEdgeStyle;rounded=0;orthogonalLoop=1;jettySize=auto;html=1;entryX=0.5;entryY=1;entryDx=0;entryDy=0;" edge="1" parent="1" source="sVTlptBGOrVxVdvOg37E-26" target="sVTlptBGOrVxVdvOg37E-22">
          <mxGeometry relative="1" as="geometry" />
        </mxCell>
        <mxCell id="sVTlptBGOrVxVdvOg37E-26" value="&lt;div&gt;TodoList ServiceImpl&lt;/div&gt;" style="swimlane;fontStyle=1;align=center;verticalAlign=top;childLayout=stackLayout;horizontal=1;startSize=40;horizontalStack=0;resizeParent=1;resizeParentMax=0;resizeLast=0;collapsible=1;marginBottom=0;whiteSpace=wrap;html=1;" vertex="1" parent="1">
          <mxGeometry x="1030" y="440" width="220" height="140" as="geometry" />
        </mxCell>
        <mxCell id="sVTlptBGOrVxVdvOg37E-27" value="+ connection: java.sql.Connection" style="text;strokeColor=none;fillColor=none;align=left;verticalAlign=top;spacingLeft=4;spacingRight=4;overflow=hidden;rotatable=0;points=[[0,0.5],[1,0.5]];portConstraint=eastwest;whiteSpace=wrap;html=1;" vertex="1" parent="sVTlptBGOrVxVdvOg37E-26">
          <mxGeometry y="40" width="220" height="20" as="geometry" />
        </mxCell>
        <mxCell id="sVTlptBGOrVxVdvOg37E-28" value="" style="line;strokeWidth=1;fillColor=none;align=left;verticalAlign=middle;spacingTop=-1;spacingLeft=3;spacingRight=3;rotatable=0;labelPosition=right;points=[];portConstraint=eastwest;strokeColor=inherit;" vertex="1" parent="sVTlptBGOrVxVdvOg37E-26">
          <mxGeometry y="60" width="220" height="8" as="geometry" />
        </mxCell>
        <mxCell id="sVTlptBGOrVxVdvOg37E-29" value="+ AddTodo(TodoList todoList): void&lt;div&gt;+ removeTodo(Integer id): void&lt;/div&gt;&lt;div&gt;+ editTodo(Integer id, String, newTodo)&lt;/div&gt;&lt;div&gt;+ getTodo(): List&amp;lt;TodoList&amp;gt;&lt;/div&gt;" style="text;strokeColor=none;fillColor=none;align=left;verticalAlign=top;spacingLeft=4;spacingRight=4;overflow=hidden;rotatable=0;points=[[0,0.5],[1,0.5]];portConstraint=eastwest;whiteSpace=wrap;html=1;" vertex="1" parent="sVTlptBGOrVxVdvOg37E-26">
          <mxGeometry y="68" width="220" height="72" as="geometry" />
        </mxCell>
        <mxCell id="sVTlptBGOrVxVdvOg37E-30" value="&lt;div&gt;&lt;span style=&quot;font-weight: 400;&quot;&gt;TodoList&lt;/span&gt;&lt;/div&gt;" style="swimlane;fontStyle=1;align=center;verticalAlign=top;childLayout=stackLayout;horizontal=1;startSize=40;horizontalStack=0;resizeParent=1;resizeParentMax=0;resizeLast=0;collapsible=1;marginBottom=0;whiteSpace=wrap;html=1;" vertex="1" parent="1">
          <mxGeometry x="1350" y="201" width="220" height="130" as="geometry" />
        </mxCell>
        <mxCell id="sVTlptBGOrVxVdvOg37E-31" value="- id: Integer&lt;div&gt;- todo: String&lt;/div&gt;" style="text;strokeColor=none;fillColor=none;align=left;verticalAlign=top;spacingLeft=4;spacingRight=4;overflow=hidden;rotatable=0;points=[[0,0.5],[1,0.5]];portConstraint=eastwest;whiteSpace=wrap;html=1;" vertex="1" parent="sVTlptBGOrVxVdvOg37E-30">
          <mxGeometry y="40" width="220" height="40" as="geometry" />
        </mxCell>
        <mxCell id="sVTlptBGOrVxVdvOg37E-32" value="" style="line;strokeWidth=1;fillColor=none;align=left;verticalAlign=middle;spacingTop=-1;spacingLeft=3;spacingRight=3;rotatable=0;labelPosition=right;points=[];portConstraint=eastwest;strokeColor=inherit;" vertex="1" parent="sVTlptBGOrVxVdvOg37E-30">
          <mxGeometry y="80" width="220" height="8" as="geometry" />
        </mxCell>
        <mxCell id="sVTlptBGOrVxVdvOg37E-33" value="+ TodoList(String todo): constructor&lt;div&gt;+ getter and setter&lt;/div&gt;" style="text;strokeColor=none;fillColor=none;align=left;verticalAlign=top;spacingLeft=4;spacingRight=4;overflow=hidden;rotatable=0;points=[[0,0.5],[1,0.5]];portConstraint=eastwest;whiteSpace=wrap;html=1;" vertex="1" parent="sVTlptBGOrVxVdvOg37E-30">
          <mxGeometry y="88" width="220" height="42" as="geometry" />
        </mxCell>
        <mxCell id="sVTlptBGOrVxVdvOg37E-36" value="" style="endArrow=none;html=1;rounded=0;exitX=1;exitY=0.5;exitDx=0;exitDy=0;" edge="1" parent="1" source="sVTlptBGOrVxVdvOg37E-2">
          <mxGeometry width="50" height="50" relative="1" as="geometry">
            <mxPoint x="340" y="330" as="sourcePoint" />
            <mxPoint x="397" y="280" as="targetPoint" />
          </mxGeometry>
        </mxCell>
        <mxCell id="sVTlptBGOrVxVdvOg37E-37" value="" style="endArrow=none;html=1;rounded=0;entryX=-0.009;entryY=0.632;entryDx=0;entryDy=0;entryPerimeter=0;exitX=1;exitY=0.5;exitDx=0;exitDy=0;" edge="1" parent="1" source="sVTlptBGOrVxVdvOg37E-7" target="sVTlptBGOrVxVdvOg37E-19">
          <mxGeometry width="50" height="50" relative="1" as="geometry">
            <mxPoint x="620" y="360" as="sourcePoint" />
            <mxPoint x="670" y="300" as="targetPoint" />
          </mxGeometry>
        </mxCell>
        <mxCell id="sVTlptBGOrVxVdvOg37E-38" style="edgeStyle=orthogonalEdgeStyle;rounded=0;orthogonalLoop=1;jettySize=auto;html=1;entryX=0.456;entryY=0.995;entryDx=0;entryDy=0;entryPerimeter=0;" edge="1" parent="1" source="sVTlptBGOrVxVdvOg37E-10" target="sVTlptBGOrVxVdvOg37E-9">
          <mxGeometry relative="1" as="geometry" />
        </mxCell>
        <mxCell id="sVTlptBGOrVxVdvOg37E-39" value="" style="endArrow=none;html=1;rounded=0;entryX=0;entryY=0.5;entryDx=0;entryDy=0;exitX=1;exitY=0.5;exitDx=0;exitDy=0;" edge="1" parent="1" source="sVTlptBGOrVxVdvOg37E-19" target="sVTlptBGOrVxVdvOg37E-23">
          <mxGeometry width="50" height="50" relative="1" as="geometry">
            <mxPoint x="920" y="266.5" as="sourcePoint" />
            <mxPoint x="1008" y="265.5" as="targetPoint" />
          </mxGeometry>
        </mxCell>
        <mxCell id="sVTlptBGOrVxVdvOg37E-41" value="" style="endArrow=none;html=1;rounded=0;entryX=0;entryY=0.5;entryDx=0;entryDy=0;exitX=1;exitY=0.5;exitDx=0;exitDy=0;" edge="1" parent="1" source="sVTlptBGOrVxVdvOg37E-23" target="sVTlptBGOrVxVdvOg37E-31">
          <mxGeometry width="50" height="50" relative="1" as="geometry">
            <mxPoint x="1270" y="410" as="sourcePoint" />
            <mxPoint x="1390" y="411" as="targetPoint" />
          </mxGeometry>
        </mxCell>
      </root>
    </mxGraphModel>
  </diagram>
</mxfile>
